<mxfile host="Q85">
  <diagram id="Sdm" name="Grid-Center">
    <mxGraphModel dx="0" dy="0" background="#FFFACD" grid="0" gridSize="10" guides="1" tooltips="1" connect="1" arrows="1" fold="1" page="1" pageScale="1" pageWidth="1169" pageHeight="827" math="0" shadow="0">
      <root>
        <mxCell id="Sdm-A"/>
        <mxCell id="Sdm-B" parent="Sdm-A"/>
        <mxCell id="Sdm-2" value="" style="ellipse;whiteSpace=wrap;html=1;fillColor=#f5f5f5;strokeColor=#666666;fontColor=#333333" vertex="1" parent="Sdm-B">
          <mxGeometry x="30" y="30" width="160" height="160" as="geometry"/>
        </mxCell>
        <mxCell id="Sdm-3" value="" style="whiteSpace=wrap;html=1;fillColor=#f5f5f5;strokeColor=#666666;fontColor=#333333" vertex="1" parent="Sdm-B">
          <mxGeometry x="250" y="30" width="160" height="160" as="geometry"/>
        </mxCell>
        <mxCell id="Sdm-4" value="" style="ellipse;whiteSpace=wrap;html=1;fillColor=#f5f5f5;strokeColor=#666666;fontColor=#333333" vertex="1" parent="Sdm-B">
          <mxGeometry x="470" y="30" width="160" height="160" as="geometry"/>
        </mxCell>
        <mxCell id="Sdm-5" value="" style="whiteSpace=wrap;html=1;fillColor=#f5f5f5;strokeColor=#666666;fontColor=#333333" vertex="1" parent="Sdm-B">
          <mxGeometry x="30" y="250" width="160" height="160" as="geometry"/>
        </mxCell>
        <mxCell id="Sdm-6" value="" style="ellipse;whiteSpace=wrap;html=1;fillColor=#f5f5f5;strokeColor=#666666;fontColor=#333333" vertex="1" parent="Sdm-B">
          <mxGeometry x="250" y="250" width="160" height="160" as="geometry"/>
        </mxCell>
        <mxCell id="Sdm-7" value="" style="whiteSpace=wrap;html=1;fillColor=#f5f5f5;strokeColor=#666666;fontColor=#333333" vertex="1" parent="Sdm-B">
          <mxGeometry x="470" y="250" width="160" height="160" as="geometry"/>
        </mxCell>
        <mxCell id="Sdm-8" value="" style="ellipse;whiteSpace=wrap;html=1;fillColor=#f5f5f5;strokeColor=#666666;fontColor=#333333" vertex="1" parent="Sdm-B">
          <mxGeometry x="30" y="470" width="160" height="160" as="geometry"/>
        </mxCell>
      </root>
    </mxGraphModel>
  </diagram>
  <diagram id="UVs" name="Grid-Top">
    <mxGraphModel dx="0" dy="0" background="#FFFACD" grid="0" gridSize="10" guides="1" tooltips="1" connect="1" arrows="1" fold="1" page="1" pageScale="1" pageWidth="1169" pageHeight="827" math="0" shadow="0">
      <root>
        <mxCell id="UVs-A"/>
        <mxCell id="UVs-B" parent="UVs-A"/>
        <mxCell id="UVs-2" value="" style="ellipse;whiteSpace=wrap;html=1;fillColor=#f5f5f5;strokeColor=#666666;fontColor=#333333" vertex="1" parent="UVs-B">
          <mxGeometry x="30" y="0" width="160" height="160" as="geometry"/>
        </mxCell>
        <mxCell id="UVs-3" value="" style="whiteSpace=wrap;html=1;fillColor=#f5f5f5;strokeColor=#666666;fontColor=#333333" vertex="1" parent="UVs-B">
          <mxGeometry x="250" y="0" width="160" height="160" as="geometry"/>
        </mxCell>
        <mxCell id="UVs-4" value="" style="ellipse;whiteSpace=wrap;html=1;fillColor=#f5f5f5;strokeColor=#666666;fontColor=#333333" vertex="1" parent="UVs-B">
          <mxGeometry x="470" y="0" width="160" height="160" as="geometry"/>
        </mxCell>
        <mxCell id="UVs-5" value="" style="whiteSpace=wrap;html=1;fillColor=#f5f5f5;strokeColor=#666666;fontColor=#333333" vertex="1" parent="UVs-B">
          <mxGeometry x="30" y="220" width="160" height="160" as="geometry"/>
        </mxCell>
        <mxCell id="UVs-6" value="" style="ellipse;whiteSpace=wrap;html=1;fillColor=#f5f5f5;strokeColor=#666666;fontColor=#333333" vertex="1" parent="UVs-B">
          <mxGeometry x="250" y="220" width="160" height="160" as="geometry"/>
        </mxCell>
        <mxCell id="UVs-7" value="" style="whiteSpace=wrap;html=1;fillColor=#f5f5f5;strokeColor=#666666;fontColor=#333333" vertex="1" parent="UVs-B">
          <mxGeometry x="470" y="220" width="160" height="160" as="geometry"/>
        </mxCell>
        <mxCell id="UVs-8" value="" style="ellipse;whiteSpace=wrap;html=1;fillColor=#f5f5f5;strokeColor=#666666;fontColor=#333333" vertex="1" parent="UVs-B">
          <mxGeometry x="30" y="440" width="160" height="160" as="geometry"/>
        </mxCell>
      </root>
    </mxGraphModel>
  </diagram>
  <diagram id="1UB" name="Grid-Bottom">
    <mxGraphModel dx="0" dy="0" background="#FFFACD" grid="0" gridSize="10" guides="1" tooltips="1" connect="1" arrows="1" fold="1" page="1" pageScale="1" pageWidth="1169" pageHeight="827" math="0" shadow="0">
      <root>
        <mxCell id="1UB-A"/>
        <mxCell id="1UB-B" parent="1UB-A"/>
        <mxCell id="1UB-2" value="" style="ellipse;whiteSpace=wrap;html=1;fillColor=#f5f5f5;strokeColor=#666666;fontColor=#333333" vertex="1" parent="1UB-B">
          <mxGeometry x="30" y="60" width="160" height="160" as="geometry"/>
        </mxCell>
        <mxCell id="1UB-3" value="" style="whiteSpace=wrap;html=1;fillColor=#f5f5f5;strokeColor=#666666;fontColor=#333333" vertex="1" parent="1UB-B">
          <mxGeometry x="250" y="60" width="160" height="160" as="geometry"/>
        </mxCell>
        <mxCell id="1UB-4" value="" style="ellipse;whiteSpace=wrap;html=1;fillColor=#f5f5f5;strokeColor=#666666;fontColor=#333333" vertex="1" parent="1UB-B">
          <mxGeometry x="470" y="60" width="160" height="160" as="geometry"/>
        </mxCell>
        <mxCell id="1UB-5" value="" style="whiteSpace=wrap;html=1;fillColor=#f5f5f5;strokeColor=#666666;fontColor=#333333" vertex="1" parent="1UB-B">
          <mxGeometry x="30" y="280" width="160" height="160" as="geometry"/>
        </mxCell>
        <mxCell id="1UB-6" value="" style="ellipse;whiteSpace=wrap;html=1;fillColor=#f5f5f5;strokeColor=#666666;fontColor=#333333" vertex="1" parent="1UB-B">
          <mxGeometry x="250" y="280" width="160" height="160" as="geometry"/>
        </mxCell>
        <mxCell id="1UB-7" value="" style="whiteSpace=wrap;html=1;fillColor=#f5f5f5;strokeColor=#666666;fontColor=#333333" vertex="1" parent="1UB-B">
          <mxGeometry x="470" y="280" width="160" height="160" as="geometry"/>
        </mxCell>
        <mxCell id="1UB-8" value="" style="ellipse;whiteSpace=wrap;html=1;fillColor=#f5f5f5;strokeColor=#666666;fontColor=#333333" vertex="1" parent="1UB-B">
          <mxGeometry x="30" y="500" width="160" height="160" as="geometry"/>
        </mxCell>
      </root>
    </mxGraphModel>
  </diagram>
  <diagram id="tEo" name="Grid-Left">
    <mxGraphModel dx="0" dy="0" background="#FFFACD" grid="0" gridSize="10" guides="1" tooltips="1" connect="1" arrows="1" fold="1" page="1" pageScale="1" pageWidth="1169" pageHeight="827" math="0" shadow="0">
      <root>
        <mxCell id="tEo-A"/>
        <mxCell id="tEo-B" parent="tEo-A"/>
        <mxCell id="tEo-2" value="" style="ellipse;whiteSpace=wrap;html=1;fillColor=#f5f5f5;strokeColor=#666666;fontColor=#333333" vertex="1" parent="tEo-B">
          <mxGeometry x="0" y="30" width="160" height="160" as="geometry"/>
        </mxCell>
        <mxCell id="tEo-3" value="" style="whiteSpace=wrap;html=1;fillColor=#f5f5f5;strokeColor=#666666;fontColor=#333333" vertex="1" parent="tEo-B">
          <mxGeometry x="220" y="30" width="160" height="160" as="geometry"/>
        </mxCell>
        <mxCell id="tEo-4" value="" style="ellipse;whiteSpace=wrap;html=1;fillColor=#f5f5f5;strokeColor=#666666;fontColor=#333333" vertex="1" parent="tEo-B">
          <mxGeometry x="440" y="30" width="160" height="160" as="geometry"/>
        </mxCell>
        <mxCell id="tEo-5" value="" style="whiteSpace=wrap;html=1;fillColor=#f5f5f5;strokeColor=#666666;fontColor=#333333" vertex="1" parent="tEo-B">
          <mxGeometry x="0" y="250" width="160" height="160" as="geometry"/>
        </mxCell>
        <mxCell id="tEo-6" value="" style="ellipse;whiteSpace=wrap;html=1;fillColor=#f5f5f5;strokeColor=#666666;fontColor=#333333" vertex="1" parent="tEo-B">
          <mxGeometry x="220" y="250" width="160" height="160" as="geometry"/>
        </mxCell>
        <mxCell id="tEo-7" value="" style="whiteSpace=wrap;html=1;fillColor=#f5f5f5;strokeColor=#666666;fontColor=#333333" vertex="1" parent="tEo-B">
          <mxGeometry x="440" y="250" width="160" height="160" as="geometry"/>
        </mxCell>
        <mxCell id="tEo-8" value="" style="ellipse;whiteSpace=wrap;html=1;fillColor=#f5f5f5;strokeColor=#666666;fontColor=#333333" vertex="1" parent="tEo-B">
          <mxGeometry x="0" y="470" width="160" height="160" as="geometry"/>
        </mxCell>
      </root>
    </mxGraphModel>
  </diagram>
  <diagram id="qFK" name="Grid-Right">
    <mxGraphModel dx="0" dy="0" background="#FFFACD" grid="0" gridSize="10" guides="1" tooltips="1" connect="1" arrows="1" fold="1" page="1" pageScale="1" pageWidth="1169" pageHeight="827" math="0" shadow="0">
      <root>
        <mxCell id="qFK-A"/>
        <mxCell id="qFK-B" parent="qFK-A"/>
        <mxCell id="qFK-2" value="" style="ellipse;whiteSpace=wrap;html=1;fillColor=#f5f5f5;strokeColor=#666666;fontColor=#333333" vertex="1" parent="qFK-B">
          <mxGeometry x="60" y="30" width="160" height="160" as="geometry"/>
        </mxCell>
        <mxCell id="qFK-3" value="" style="whiteSpace=wrap;html=1;fillColor=#f5f5f5;strokeColor=#666666;fontColor=#333333" vertex="1" parent="qFK-B">
          <mxGeometry x="280" y="30" width="160" height="160" as="geometry"/>
        </mxCell>
        <mxCell id="qFK-4" value="" style="ellipse;whiteSpace=wrap;html=1;fillColor=#f5f5f5;strokeColor=#666666;fontColor=#333333" vertex="1" parent="qFK-B">
          <mxGeometry x="500" y="30" width="160" height="160" as="geometry"/>
        </mxCell>
        <mxCell id="qFK-5" value="" style="whiteSpace=wrap;html=1;fillColor=#f5f5f5;strokeColor=#666666;fontColor=#333333" vertex="1" parent="qFK-B">
          <mxGeometry x="60" y="250" width="160" height="160" as="geometry"/>
        </mxCell>
        <mxCell id="qFK-6" value="" style="ellipse;whiteSpace=wrap;html=1;fillColor=#f5f5f5;strokeColor=#666666;fontColor=#333333" vertex="1" parent="qFK-B">
          <mxGeometry x="280" y="250" width="160" height="160" as="geometry"/>
        </mxCell>
        <mxCell id="qFK-7" value="" style="whiteSpace=wrap;html=1;fillColor=#f5f5f5;strokeColor=#666666;fontColor=#333333" vertex="1" parent="qFK-B">
          <mxGeometry x="500" y="250" width="160" height="160" as="geometry"/>
        </mxCell>
        <mxCell id="qFK-8" value="" style="ellipse;whiteSpace=wrap;html=1;fillColor=#f5f5f5;strokeColor=#666666;fontColor=#333333" vertex="1" parent="qFK-B">
          <mxGeometry x="60" y="470" width="160" height="160" as="geometry"/>
        </mxCell>
      </root>
    </mxGraphModel>
  </diagram>
</mxfile>